<svg width="58" height="28" viewBox="0 0 58 28" fill="none" xmlns="http://www.w3.org/2000/svg">
<g clip-path="url(#clip0_3_1335)">
<path d="M55.8468 0.0490029L38.8736 4.62745C38.5006 4.7382 38.1711 4.96205 37.9303 5.26822C37.6894 5.57439 37.5492 5.94782 37.5288 6.33715V9.21988L57.1881 3.78133V1.03322C57.1881 0.29025 56.5898 -0.152036 55.8468 0.0490029Z" fill="url(#paint0_linear_3_1335)"/>
<path d="M37.5343 14.4644C37.5343 15.2091 38.136 15.6497 38.8791 15.4486L55.847 10.8719C56.2193 10.76 56.548 10.5355 56.7881 10.2292C57.0282 9.9228 57.168 9.54954 57.1883 9.16049V5.16943L37.5308 10.6062L37.5343 14.4644Z" fill="url(#paint1_linear_3_1335)"/>
<g opacity="0.15">
<mask id="mask0_3_1335" style="mask-type:luminance" maskUnits="userSpaceOnUse" x="37" y="4" width="21" height="22">
<path d="M57.1881 13.8263V24.7261C57.1881 25.4726 56.5863 25.9131 55.8415 25.7121L38.8736 21.1441C38.5003 21.0335 38.1704 20.8095 37.9295 20.5029C37.6886 20.1963 37.5486 19.8224 37.5288 19.4327V4.96313C37.5288 6.18685 38.5195 7.45077 39.744 7.78118L55.8398 12.1149C56.2137 12.2251 56.5442 12.449 56.7857 12.7555C57.0272 13.0621 57.1678 13.4363 57.1881 13.8263Z" fill="white"/>
</mask>
<g mask="url(#mask0_3_1335)">
<path d="M55.8468 0.0490029L38.8736 4.62745C38.5006 4.7382 38.1711 4.96205 37.9303 5.26822C37.6894 5.57439 37.5492 5.94782 37.5288 6.33715V9.21988L57.1881 3.78133V1.03322C57.1881 0.29025 56.5898 -0.152036 55.8468 0.0490029Z" fill="black"/>
<path d="M37.5343 14.4644C37.5343 15.2091 38.136 15.6497 38.8791 15.4486L55.847 10.8719C56.2193 10.76 56.548 10.5355 56.7881 10.2292C57.0282 9.9228 57.168 9.54954 57.1883 9.16049V5.16943L37.5308 10.6062L37.5343 14.4644Z" fill="black"/>
</g>
</g>
<path d="M57.1881 16.0463V26.9461C57.1881 27.6926 56.5863 28.1331 55.8415 27.9321L38.8736 23.3624C38.5003 23.2523 38.1703 23.0286 37.9293 22.7223C37.6884 22.416 37.5484 22.0422 37.5288 21.6527V7.18311C37.5288 8.40682 38.5195 9.67074 39.744 9.9994L55.845 14.3401C56.2171 14.4509 56.5459 14.6744 56.7864 14.9799C57.0268 15.2853 57.1671 15.6578 57.1881 16.0463Z" fill="url(#paint2_linear_3_1335)"/>
<path d="M50.5723 20.0724C50.5723 18.9553 51.4775 18.2945 52.5921 18.6004L57.0137 19.8084C57.2165 19.8699 57.3954 19.9925 57.5262 20.1595C57.657 20.3265 57.7332 20.5299 57.7446 20.7419V23.3274C57.7478 23.4166 57.729 23.5052 57.6898 23.5853C57.6505 23.6654 57.5921 23.7345 57.5197 23.7864C57.4473 23.8384 57.3632 23.8716 57.2749 23.883C57.1866 23.8944 57.0969 23.8837 57.0137 23.8519L52.5921 22.6439C51.4775 22.345 50.5723 21.1912 50.5723 20.0724Z" fill="url(#paint3_linear_3_1335)"/>
<path d="M53.4929 21.5277C53.8557 21.2102 53.8125 20.5655 53.3962 20.0876C52.98 19.6098 52.3485 19.4798 51.9856 19.7972C51.6228 20.1147 51.666 20.7595 52.0822 21.2373C52.4985 21.7152 53.13 21.8452 53.4929 21.5277Z" fill="#FFF8F8"/>
<path d="M14.4283 17.1058C14.0906 17.1094 13.7533 17.0783 13.4219 17.0131C13.1357 16.9555 12.8599 16.8547 12.6039 16.7142C12.3578 16.577 12.1362 16.3997 11.948 16.1898C11.7453 15.9579 11.5746 15.6997 11.4404 15.4223C10.216 16.5563 8.3828 17.1233 5.94087 17.1233C4.54548 17.114 3.39254 16.9391 2.48205 16.5988C1.57156 16.2585 0.900026 15.7393 0.467456 15.0412C0.283825 14.7143 0.153125 14.3603 0.0802349 13.9923C0.0267927 13.7318 -9.01653e-05 13.4664 2.27194e-07 13.2004C2.27194e-07 13.099 1.19559e-07 12.9312 0.0244194 12.6987C0.0528305 12.4008 0.116657 12.1073 0.214541 11.8246C0.325488 11.4825 0.473467 11.1537 0.655833 10.8439L1.94482 11.655C1.82023 11.8602 1.71288 12.0754 1.62388 12.2983C1.54192 12.504 1.48794 12.7198 1.46341 12.9399C1.455 13.0201 1.45092 13.1006 1.4512 13.1812C1.45309 13.3368 1.46944 13.4919 1.50004 13.6444C1.547 13.8503 1.63221 14.0454 1.75121 14.2196C1.89147 14.4446 2.08734 14.6294 2.31983 14.7563C2.61039 14.9179 2.92133 15.0396 3.24428 15.1181C3.64546 15.2178 4.05363 15.2868 4.46525 15.3244C4.92107 15.3699 5.4112 15.3926 5.93564 15.3926C6.41181 15.3926 6.86531 15.3751 7.29265 15.3384C7.69366 15.3058 8.09217 15.2474 8.48571 15.1636C8.82724 15.0938 9.16176 14.9932 9.48516 14.8629C9.76302 14.7531 10.022 14.6003 10.2526 14.4101C10.4423 14.2669 10.6033 14.0889 10.7271 13.8857C10.8475 13.6848 10.9485 13.4729 11.0288 13.2528C11.1091 13.0304 11.176 12.8033 11.2294 12.5728C11.2817 12.3403 11.3393 12.1165 11.4038 11.9033L12.9405 12.3176C12.8572 12.5539 12.7902 12.7958 12.7399 13.0413C12.6969 13.2554 12.6747 13.4732 12.6736 13.6916V13.9084C12.6814 14.073 12.7131 14.2355 12.7678 14.3909C12.8276 14.5859 12.9301 14.7651 13.0678 14.9153C13.2198 15.0725 13.4061 15.1922 13.612 15.265C13.8779 15.3561 14.1578 15.3993 14.4388 15.3926H14.6795V17.1058H14.4283ZM6.37518 10.3019L5.23969 11.44L4.09023 10.295L5.22573 9.1499L6.37518 10.3019ZM8.90084 10.3019L7.76534 11.447L6.61589 10.295L7.75139 9.1569L8.90084 10.3019Z" fill="#0C1229"/>
<path d="M20.7426 15.3892V17.1024H14.4146V15.3892H20.7426Z" fill="#0C1229"/>
<path d="M20.4758 15.389H20.9834C21.1895 15.3947 21.3952 15.3664 21.5921 15.3051C21.7408 15.2571 21.8711 15.1643 21.9654 15.0394C22.0624 14.901 22.1257 14.7417 22.1503 14.5744C22.186 14.3472 22.2023 14.1173 22.1991 13.8873C22.1991 13.7859 22.1991 13.6636 22.1991 13.5202C22.1991 13.3769 22.1991 13.1846 22.1991 12.9398C22.1991 12.6951 22.1869 12.3892 22.1694 12.0168C22.152 11.6444 22.1224 11.1759 22.0822 10.6183C22.0648 10.1404 22.045 9.683 22.0229 9.24596C22.0003 8.80717 21.9793 8.41733 21.9584 8.07294C21.9375 7.72855 21.9218 7.44535 21.9061 7.22159C21.8904 6.99782 21.8799 6.87195 21.8764 6.81426L23.5596 6.45239C23.6084 6.97684 23.6538 7.59395 23.6974 8.29321C23.741 8.99248 23.7776 9.74943 23.8143 10.5571C23.8317 11.1654 23.8474 11.6637 23.8596 12.0553C23.8718 12.4468 23.8858 12.7685 23.898 13.0255C23.9102 13.2825 23.9154 13.4923 23.9207 13.6548C23.9259 13.8174 23.9207 13.9765 23.9207 14.1286C23.9267 14.5489 23.8678 14.9675 23.7462 15.3698C23.645 15.7229 23.4605 16.0464 23.2082 16.313C22.9559 16.5795 22.6433 16.7813 22.2968 16.9012C21.8712 17.048 21.4229 17.1179 20.9729 17.1075H20.4653L20.4758 15.389Z" fill="#0C1229"/>
<path d="M27.0303 6.45068C27.1466 7.30379 27.2251 8.1196 27.2658 8.89811C27.3065 9.67663 27.3332 10.4342 27.346 11.1707C27.3547 11.8001 27.3582 12.384 27.3547 12.9189C27.3512 13.4538 27.3547 13.9538 27.339 14.4153C27.3233 14.8768 27.3163 15.3086 27.2989 15.709C27.2815 16.1093 27.2623 16.4817 27.2448 16.8295L25.5006 17.0988C25.5948 15.6245 25.6419 14.3227 25.6419 13.1934C25.6419 12.7388 25.6349 12.3123 25.6209 11.9137C25.5861 11 25.5459 10.1393 25.5006 9.33166C25.4552 8.52401 25.3971 7.75307 25.3262 7.01884L27.0303 6.45068Z" fill="#0C1229"/>
<path d="M28.4204 20.1213C29.0269 20.0031 29.6209 19.8275 30.1943 19.5969C30.677 19.4043 31.1378 19.1605 31.5688 18.8696C31.9236 18.6314 32.242 18.3429 32.5141 18.013C32.7374 17.746 32.9026 17.4352 32.999 17.1005C32.6386 17.1005 32.2862 17.0894 31.942 17.0673C31.6155 17.0472 31.2909 17.004 30.9705 16.9379C30.6805 16.8776 30.398 16.7856 30.128 16.6634C29.88 16.55 29.6556 16.3905 29.467 16.1932C29.2766 15.9925 29.1299 15.7544 29.0361 15.4939C28.9267 15.1753 28.8747 14.8396 28.8826 14.5027C28.8837 14.2443 28.9106 13.9866 28.9629 13.7335C29.0151 13.463 29.0922 13.1979 29.1931 12.9416C29.2917 12.6868 29.4156 12.4426 29.5629 12.2126C29.7058 11.9882 29.877 11.7831 30.0722 11.6025C30.2589 11.4284 30.4735 11.2872 30.7071 11.1847C30.9427 11.0801 31.1978 11.0271 31.4554 11.0291C32.1438 11.0291 32.774 11.3374 33.3461 11.9539C33.5576 12.191 33.7425 12.4507 33.8973 12.7283C34.0626 13.0229 34.201 13.3318 34.3107 13.6514C34.4267 13.9866 34.5142 14.331 34.5723 14.681C34.6323 15.0392 34.6627 15.4017 34.663 15.7649C34.6667 16.3075 34.5933 16.8479 34.445 17.3697C34.3065 17.8543 34.1016 18.3173 33.8363 18.7455C33.5775 19.164 33.2642 19.5461 32.9048 19.8818C32.5419 20.22 32.143 20.5172 31.7153 20.7681C31.2763 21.0265 30.813 21.2408 30.3321 21.408C29.8408 21.5801 29.3353 21.7088 28.8216 21.7926L28.4204 20.1213ZM31.4554 12.7528C31.318 12.7607 31.1867 12.8121 31.0804 12.8996C30.9391 13.0065 30.8149 13.1344 30.7123 13.279C30.5991 13.4376 30.506 13.6097 30.435 13.7912C30.3649 13.9658 30.3282 14.152 30.3269 14.3401C30.3204 14.5051 30.3662 14.6679 30.4577 14.8051C30.5447 14.9288 30.6586 15.031 30.7908 15.1041C30.9357 15.1843 31.0914 15.2431 31.253 15.2789C31.4275 15.3156 31.6019 15.3436 31.7641 15.3628L32.0711 15.375C32.1827 15.375 32.2978 15.375 32.4199 15.3855H32.7688H33.095C33.0793 15.2029 33.0472 15.0222 32.999 14.8454C32.9457 14.6462 32.8798 14.4506 32.8019 14.2597C32.7219 14.0656 32.6305 13.8765 32.5281 13.6933C32.4321 13.5229 32.3212 13.3615 32.1967 13.2108C32.0913 13.082 31.9686 12.9685 31.8321 12.8734C31.722 12.7952 31.5904 12.7531 31.4554 12.7528Z" fill="#0C1229"/>
<path d="M0.762401 21.2647C0.825783 21.3359 0.901403 21.3951 0.985663 21.4395C1.06686 21.4803 1.1565 21.5012 1.2473 21.5007C1.34332 21.505 1.43778 21.4753 1.51417 21.4168C1.54784 21.3892 1.57466 21.3542 1.59252 21.3145C1.61038 21.2747 1.61879 21.2314 1.61708 21.1878C1.61911 21.1134 1.59434 21.0408 1.54731 20.9833C1.49516 20.9258 1.43158 20.88 1.36067 20.8487C1.27869 20.8085 1.18625 20.7665 1.05718 20.721C0.994384 20.6983 0.921126 20.6669 0.839147 20.6284C0.755038 20.5873 0.676497 20.5356 0.605419 20.4746C0.53382 20.4102 0.474688 20.3332 0.430996 20.2473C0.381108 20.1457 0.356567 20.0336 0.359482 19.9204C0.355675 19.7802 0.396615 19.6424 0.476346 19.5271C0.555044 19.4141 0.663841 19.3257 0.790309 19.2718C0.931424 19.2094 1.08436 19.1784 1.23858 19.1809C1.38896 19.1776 1.53828 19.2068 1.67638 19.2666C1.79231 19.3189 1.89712 19.3931 1.98511 19.4851C2.06181 19.5665 2.1259 19.6591 2.17523 19.7596L1.74964 19.9973C1.71424 19.9342 1.6715 19.8755 1.62231 19.8225C1.5714 19.7718 1.51246 19.7298 1.44789 19.6984C1.3808 19.6648 1.30658 19.648 1.2316 19.6494C1.14482 19.6435 1.05898 19.6703 0.990896 19.7246C0.965759 19.7462 0.945577 19.7731 0.93173 19.8032C0.917883 19.8334 0.910696 19.8662 0.910661 19.8994C0.909537 19.9641 0.93327 20.0266 0.976942 20.0742C1.03312 20.1335 1.1 20.1815 1.17404 20.2158C1.28269 20.2678 1.39455 20.3128 1.50893 20.3504C1.59459 20.3811 1.67745 20.4192 1.75662 20.4641C1.83658 20.5126 1.90988 20.5713 1.97464 20.6389C2.03964 20.7046 2.09119 20.7824 2.12639 20.8679C2.20522 21.079 2.1977 21.3127 2.10546 21.5182C2.05576 21.6185 1.98423 21.7063 1.89615 21.7752C1.80667 21.8451 1.70575 21.899 1.59789 21.9343C1.33476 22.0204 1.04927 22.0067 0.795541 21.8958C0.657945 21.8372 0.533415 21.7516 0.429252 21.6441C0.32859 21.5423 0.246005 21.4241 0.185059 21.2944L0.572279 21.02C0.627054 21.1079 0.690768 21.1899 0.762401 21.2647Z" fill="#0C1229"/>
<path d="M3.75186 19.2351V21.9028H3.20068V19.2351H3.75186Z" fill="#0C1229"/>
<path d="M7.31546 19.2351V22.0322L5.42122 20.2473V21.9011H4.89795V19.104L6.79219 20.8906V19.2351H7.31546Z" fill="#0C1229"/>
<path d="M9.01938 21.0252C9.09475 21.1523 9.20331 21.2562 9.33334 21.3259C9.46269 21.3967 9.60808 21.4328 9.75544 21.4308C9.97112 21.4382 10.1836 21.377 10.3624 21.256C10.438 21.2032 10.5071 21.1416 10.5683 21.0724V21.6826C10.4632 21.7679 10.3455 21.8363 10.2194 21.8853C10.0631 21.937 9.89906 21.9613 9.73451 21.957C9.54163 21.9589 9.35005 21.9251 9.16938 21.8574C9.00118 21.7952 8.84775 21.6986 8.71891 21.5737C8.59007 21.4488 8.48864 21.2983 8.4211 21.1319C8.28151 20.7703 8.28151 20.3694 8.4211 20.0078C8.48864 19.8414 8.59007 19.6909 8.71891 19.566C8.84775 19.4411 9.00118 19.3445 9.16938 19.2823C9.35005 19.2146 9.54163 19.1808 9.73451 19.1827C9.89922 19.178 10.0634 19.2029 10.2194 19.2561C10.3454 19.3045 10.4631 19.3723 10.5683 19.4571V20.0707C10.5067 20.0046 10.4376 19.946 10.3624 19.8959C10.2797 19.8381 10.1893 19.7922 10.0938 19.7596C9.9844 19.7251 9.87013 19.7085 9.75544 19.7106C9.60816 19.7093 9.46295 19.7454 9.33334 19.8155C9.20414 19.8856 9.0958 19.9887 9.01938 20.1144C8.94052 20.2548 8.8991 20.4131 8.8991 20.5742C8.8991 20.7353 8.94052 20.8936 9.01938 21.034V21.0252Z" fill="#0C1229"/>
<path d="M12.2025 19.2351V21.9028H11.6792V19.2351H12.2025ZM12.028 19.2351H13.3711V19.6966H12.028V19.2351ZM12.028 20.2595H13.2944V20.7141H12.028V20.2595ZM12.028 21.4413H13.3711V21.9028H12.028V21.4413Z" fill="#0C1229"/>
<path d="M17.1843 20.6335C17.2459 20.5677 17.3041 20.4989 17.3588 20.4272C17.4047 20.3696 17.4418 20.3053 17.4687 20.2367C17.4944 20.174 17.5074 20.1069 17.507 20.0391C17.5071 19.9907 17.4982 19.9427 17.4809 19.8975C17.4628 19.8521 17.4355 19.811 17.4006 19.7769C17.3641 19.7396 17.3201 19.7104 17.2716 19.6912C17.2164 19.668 17.157 19.6567 17.0971 19.658C17.0116 19.6559 16.9273 19.679 16.8547 19.7244C16.7865 19.7718 16.7328 19.8371 16.6994 19.9133C16.6611 20.002 16.642 20.098 16.6436 20.1947H16.1116C16.1091 20.0169 16.1479 19.8409 16.225 19.6807C16.3005 19.53 16.4173 19.4038 16.5616 19.3171C16.7277 19.2224 16.9167 19.1758 17.1076 19.1825C17.2511 19.1795 17.3939 19.2045 17.528 19.2559C17.64 19.2997 17.742 19.3657 17.828 19.45C17.9028 19.5264 17.962 19.6166 18.0024 19.7157C18.0399 19.8073 18.0594 19.9052 18.0599 20.0042C18.061 20.1441 18.0262 20.2819 17.9588 20.4045C17.8876 20.5314 17.7963 20.646 17.6884 20.7436L16.9907 21.3992H18.1175V21.8992H15.9756L17.1843 20.6335Z" fill="#0C1229"/>
<path d="M19.1465 19.8348C19.2257 19.6439 19.3561 19.4787 19.5232 19.3575C19.6898 19.247 19.8851 19.188 20.0849 19.188C20.2847 19.188 20.48 19.247 20.6465 19.3575C20.8131 19.4784 20.9425 19.6438 21.0198 19.8348C21.1966 20.3064 21.1966 20.8264 21.0198 21.298C20.9425 21.4895 20.8132 21.6555 20.6465 21.777C20.48 21.8876 20.2847 21.9466 20.0849 21.9466C19.8851 21.9466 19.6898 21.8876 19.5232 21.777C19.356 21.6552 19.2256 21.4894 19.1465 21.298C18.9674 20.8268 18.9674 20.306 19.1465 19.8348ZM19.5791 20.9344C19.5998 21.0353 19.6369 21.1322 19.6889 21.2211C19.7334 21.2916 19.793 21.3514 19.8634 21.3959C19.9291 21.4392 20.0062 21.4618 20.0849 21.4606C20.1641 21.4618 20.2418 21.4393 20.3081 21.3959C20.3789 21.3518 20.4386 21.292 20.4826 21.2211C20.5346 21.1322 20.5717 21.0353 20.5925 20.9344C20.6194 20.8139 20.6323 20.6907 20.6308 20.5673C20.6322 20.4433 20.6193 20.3195 20.5925 20.1984C20.5717 20.098 20.5346 20.0017 20.4826 19.9135C20.4397 19.8389 20.3799 19.7754 20.3081 19.7282C20.2415 19.6856 20.164 19.6631 20.0849 19.6635C20.0064 19.6631 19.9294 19.6856 19.8634 19.7282C19.792 19.7759 19.7323 19.8393 19.6889 19.9135C19.6369 20.0017 19.5998 20.098 19.5791 20.1984C19.5522 20.3195 19.5393 20.4433 19.5407 20.5673C19.5392 20.6907 19.5521 20.8139 19.5791 20.9344Z" fill="#0C1229"/>
<path d="M22.1624 19.8346C22.2403 19.6429 22.371 19.4774 22.5391 19.3573C22.7014 19.2413 22.8963 19.1801 23.0955 19.1825C23.2982 19.1791 23.4967 19.2403 23.6624 19.3573C23.828 19.4788 23.9567 19.644 24.0339 19.8346C24.213 20.3058 24.213 20.8266 24.0339 21.2978C23.9567 21.4888 23.8281 21.6547 23.6624 21.7768C23.4964 21.8931 23.2981 21.9542 23.0955 21.9516C22.8964 21.9532 22.7018 21.892 22.5391 21.7768C22.3709 21.656 22.2403 21.4899 22.1624 21.2978C21.981 20.827 21.981 20.3054 22.1624 19.8346ZM22.5932 20.9342C22.6156 21.0346 22.6526 21.1312 22.7031 21.2209C22.748 21.291 22.8075 21.3506 22.8775 21.3957C22.944 21.438 23.0212 21.4604 23.0999 21.4604C23.1787 21.4604 23.2558 21.438 23.3223 21.3957C23.3926 21.351 23.4521 21.2913 23.4967 21.2209C23.5472 21.1312 23.5842 21.0346 23.6066 20.9342C23.6327 20.8136 23.6456 20.6905 23.645 20.5671C23.6455 20.4431 23.6326 20.3194 23.6066 20.1982C23.5843 20.0983 23.5473 20.0022 23.4967 19.9132C23.4532 19.8391 23.3936 19.7758 23.3223 19.7279C23.2558 19.6857 23.1787 19.6632 23.0999 19.6632C23.0212 19.6632 22.944 19.6857 22.8775 19.7279C22.8065 19.7762 22.747 19.8394 22.7031 19.9132C22.6525 20.0022 22.6155 20.0983 22.5932 20.1982C22.5672 20.3194 22.5543 20.4431 22.5548 20.5671C22.5542 20.6905 22.5671 20.8136 22.5932 20.9342Z" fill="#0C1229"/>
<path d="M25.3717 21.8923L26.2282 20.8871L26.3223 20.8522C26.27 20.9116 26.2033 20.9568 26.1287 20.9833C26.0514 21.0074 25.9707 21.0186 25.8898 21.0165C25.7879 21.0161 25.687 20.9953 25.5933 20.9553C25.3923 20.8693 25.2327 20.7081 25.1485 20.506C25.1027 20.3952 25.0796 20.2763 25.0805 20.1564C25.0753 19.972 25.1231 19.7899 25.2182 19.6319C25.3085 19.4893 25.4374 19.3754 25.5898 19.3033C25.753 19.2252 25.9322 19.1862 26.113 19.1897C26.2939 19.1867 26.4729 19.2256 26.6363 19.3033C26.7879 19.376 26.916 19.4898 27.0061 19.6319C27.1017 19.7898 27.1501 19.9718 27.1456 20.1564C27.1469 20.2829 27.1207 20.4081 27.0689 20.5235C27.0191 20.6353 26.9565 20.7409 26.8822 20.8382L26.0729 21.8976L25.3717 21.8923ZM26.5351 19.8872C26.4944 19.8138 26.434 19.7532 26.3607 19.7124C26.2828 19.671 26.196 19.6494 26.1078 19.6494C26.0196 19.6494 25.9328 19.671 25.8549 19.7124C25.7816 19.7532 25.7212 19.8138 25.6805 19.8872C25.6357 19.9678 25.6134 20.0589 25.6159 20.1512C25.6139 20.2433 25.6362 20.3343 25.6805 20.4151C25.7219 20.488 25.7821 20.5484 25.8549 20.5899C25.9323 20.6328 26.0193 20.6553 26.1078 20.6553C26.1963 20.6553 26.2833 20.6328 26.3607 20.5899C26.4335 20.5484 26.4937 20.488 26.5351 20.4151C26.5794 20.3343 26.6017 20.2433 26.5997 20.1512C26.6022 20.0589 26.5799 19.9678 26.5351 19.8872Z" fill="#0C1229"/>
</g>
<defs>
<linearGradient id="paint0_linear_3_1335" x1="37.534" y1="4.60996" x2="57.1916" y2="4.60996" gradientUnits="userSpaceOnUse">
<stop stop-color="#5BB9FD"/>
<stop offset="1" stop-color="#8E88FF"/>
</linearGradient>
<linearGradient id="paint1_linear_3_1335" x1="37.5343" y1="10.3335" x2="57.1918" y2="10.3335" gradientUnits="userSpaceOnUse">
<stop stop-color="#5BB9FD"/>
<stop offset="1" stop-color="#8E88FF"/>
</linearGradient>
<linearGradient id="paint2_linear_3_1335" x1="37.534" y1="17.5812" x2="57.1916" y2="17.5812" gradientUnits="userSpaceOnUse">
<stop stop-color="#5BBAFD"/>
<stop offset="1" stop-color="#36EDFD"/>
</linearGradient>
<linearGradient id="paint3_linear_3_1335" x1="50.5723" y1="21.2069" x2="57.7446" y2="21.2069" gradientUnits="userSpaceOnUse">
<stop stop-color="#5BB9FD"/>
<stop offset="1" stop-color="#8E88FF"/>
</linearGradient>
<clipPath id="clip0_3_1335">
<rect width="57.7447" height="27.9794" fill="white"/>
</clipPath>
</defs>
</svg>
